<svg xmlns="http://www.w3.org/2000/svg" fill-rule="evenodd" clip-rule="evenodd" image-rendering="optimizeQuality" shape-rendering="geometricPrecision" text-rendering="geometricPrecision" viewBox="0 0 6.827 6.827" id="Money">
  <path fill="#e20a52" fill-rule="nonzero" d="M3.413 5.966c-.1.006-2.19.1-2.165-1.428.015-.955.563-1.57 1.265-1.847.284-.111.592-.167.9-.167.308 0 .617.056.9.167.703.276 1.25.892 1.266 1.847.024 1.527-2.066 1.434-2.166 1.428zM1.407 4.54c-.021 1.348 1.875 1.273 1.996 1.267h.015c.014 0 2.024.12 2.002-1.267-.014-.88-.519-1.446-1.164-1.7a2.31 2.31 0 0 0-.843-.156 2.31 2.31 0 0 0-.842.156c-.646.254-1.15.82-1.164 1.7z" class="color0a93e2 svgShape"></path>
  <path fill="#e20a52" fill-rule="nonzero" d="M2.831 2.657a.08.08 0 0 0 .16-.004c-.019-.664-.304-1.056-.49-1.242l.531-.038a.08.08 0 0 0 .068-.049c.075-.146.161-.242.25-.287a.25.25 0 0 1 .113-.028.25.25 0 0 1 .114.028c.09.046.176.143.252.292a.08.08 0 0 0 .07.044l.527.038c-.186.186-.472.578-.49 1.242a.08.08 0 0 0 .16.004c.022-.851.511-1.203.568-1.24a.08.08 0 0 0-.032-.15l-.682-.05a.756.756 0 0 0-.301-.322.407.407 0 0 0-.186-.046.407.407 0 0 0-.185.046.756.756 0 0 0-.301.322l-.678.049a.08.08 0 0 0-.042.147c.002.001.55.342.574 1.244z" class="color0a93e2 svgShape"></path>
  <path fill="#e20a52" fill-rule="nonzero" d="M2.687 1.785a.08.08 0 0 0 .064.146c.11-.05.365-.115.692-.117.222-.002.476.027.74.111a.08.08 0 0 0 .049-.152 2.563 2.563 0 0 0-.79-.118 2.083 2.083 0 0 0-.755.13zM3.4 5.18v-.186a.683.683 0 0 1-.226-.062.396.396 0 0 1-.15-.145.518.518 0 0 1-.074-.244l.186-.035c.015.1.04.172.077.22a.269.269 0 0 0 .187.11v-.591a.776.776 0 0 1-.234-.09.344.344 0 0 1-.136-.136.407.407 0 0 1-.048-.2c0-.131.047-.238.14-.32A.487.487 0 0 1 3.4 3.4v-.089h.11v.089c.108.01.194.042.257.095a.42.42 0 0 1 .146.277l-.192.029a.315.315 0 0 0-.069-.168.252.252 0 0 0-.142-.077v.536c.093.023.155.042.185.055a.457.457 0 0 1 .142.092c.036.037.064.08.084.13.02.05.03.105.03.163a.449.449 0 0 1-.441.46v.188H3.4zm0-1.626a.274.274 0 0 0-.17.087.242.242 0 0 0-.063.166.24.24 0 0 0 .053.159.366.366 0 0 0 .18.102v-.514zm.11 1.283a.275.275 0 0 0 .179-.093.29.29 0 0 0 .07-.2.25.25 0 0 0-.05-.162.434.434 0 0 0-.2-.11v.565z" class="color0a93e2 svgShape"></path>
  <path fill="#f8c2d4" d="m2.95 4.544.187-.035c.015.1.04.172.077.22a.269.269 0 0 0 .187.11v-.591a.776.776 0 0 1-.234-.09.344.344 0 0 1-.136-.136.407.407 0 0 1-.048-.2c0-.131.047-.238.14-.32A.487.487 0 0 1 3.4 3.4v-.089h.11v.089c.108.01.194.042.257.095a.42.42 0 0 1 .146.277l-.192.029a.315.315 0 0 0-.069-.168.252.252 0 0 0-.142-.077v.536c.093.023.155.042.185.055a.457.457 0 0 1 .142.092c.036.037.064.08.084.13.02.05.03.105.03.163a.449.449 0 0 1-.441.46v.188H3.4v-.186a.683.683 0 0 1-.226-.062.396.396 0 0 1-.15-.145.518.518 0 0 1-.074-.244zM2.572 2.84c-.646.254-1.15.82-1.164 1.7-.021 1.348 1.875 1.273 1.996 1.267h.015c.014 0 2.024.12 2.002-1.267-.014-.88-.519-1.446-1.164-1.7a2.31 2.31 0 0 0-.843-.156 2.31 2.31 0 0 0-.842.156z" class="colorc2e4f8 svgShape"></path>
  <path fill="#f8c2d4" d="M3.221 3.967a.366.366 0 0 0 .18.102v-.514a.274.274 0 0 0-.17.087.242.242 0 0 0-.063.166.24.24 0 0 0 .053.159zm.29.306v.565a.275.275 0 0 0 .179-.093.29.29 0 0 0 .07-.2.25.25 0 0 0-.05-.162.434.434 0 0 0-.2-.11z" class="colorc2e4f8 svgShape"></path>
  <path fill="#ff6699" d="M3.413 2.524c.177 0 .354.018.526.055.016-.274.078-.499.158-.68a2.416 2.416 0 0 0-.654-.085c-.264.001-.48.045-.612.087.077.177.137.395.155.659.14-.024.284-.036.427-.036z" class="colorf4f4f4 svgShape"></path>
  <path fill="#f8c2d4" d="M3.442 1.655a2.57 2.57 0 0 1 .727.1c.085-.154.18-.267.257-.344l-.528-.038a.08.08 0 0 1-.07-.044c-.075-.15-.162-.246-.251-.292a.25.25 0 0 0-.114-.028.25.25 0 0 0-.113.028c-.089.045-.175.14-.25.287a.08.08 0 0 1-.068.049l-.531.038c.077.078.173.191.258.346.144-.049.388-.1.683-.102z" class="colorc2e4f8 svgShape"></path>
  <path fill="none" d="M0 0h6.827v6.827H0z"></path>
</svg>
